<mxfile host="65bd71144e">
    <diagram id="O9Rmq3UODxACprPRUezw" name="Page-1">
        <mxGraphModel dx="655" dy="633" grid="1" gridSize="10" guides="1" tooltips="1" connect="1" arrows="1" fold="1" page="1" pageScale="1" pageWidth="850" pageHeight="1100" math="0" shadow="0">
            <root>
                <mxCell id="0"/>
                <mxCell id="1" parent="0"/>
                <mxCell id="26" value="" style="group" vertex="1" connectable="0" parent="1">
                    <mxGeometry x="80" y="160" width="510" height="490" as="geometry"/>
                </mxCell>
                <mxCell id="25" value="" style="rounded=0;whiteSpace=wrap;html=1;fontColor=#1A1A1A;fillColor=#000000;" vertex="1" parent="26">
                    <mxGeometry x="-10" y="-10" width="500" height="480" as="geometry"/>
                </mxCell>
                <mxCell id="2" value="A" style="rounded=1;whiteSpace=wrap;html=1;fillColor=#d5e8d4;gradientColor=#97d077;strokeColor=#82b366;fontColor=#000000;" vertex="1" parent="26">
                    <mxGeometry width="120" height="40" as="geometry"/>
                </mxCell>
                <mxCell id="3" value="B" style="rounded=1;whiteSpace=wrap;html=1;fillColor=#ffcd28;gradientColor=#ffa500;strokeColor=#d79b00;fontColor=#000000;" vertex="1" parent="26">
                    <mxGeometry x="140" width="80" height="40" as="geometry"/>
                </mxCell>
                <mxCell id="12" value="A" style="rounded=1;whiteSpace=wrap;html=1;fillColor=#d5e8d4;gradientColor=#97d077;strokeColor=#82b366;fontColor=#000000;" vertex="1" parent="26">
                    <mxGeometry x="140" y="420" width="80" height="40" as="geometry"/>
                </mxCell>
                <mxCell id="13" value="B" style="rounded=1;whiteSpace=wrap;html=1;fillColor=#ffcd28;gradientColor=#ffa500;strokeColor=#d79b00;fontColor=#000000;" vertex="1" parent="26">
                    <mxGeometry y="420" width="120" height="40" as="geometry"/>
                </mxCell>
                <mxCell id="14" value="'a' and 'b' do not overlap" style="text;html=1;strokeColor=#666666;fillColor=#f5f5f5;align=center;verticalAlign=middle;whiteSpace=wrap;rounded=1;gradientColor=#b3b3b3;fontColor=#1A1A1A;" vertex="1" parent="26">
                    <mxGeometry x="280" width="200" height="40" as="geometry"/>
                </mxCell>
                <mxCell id="15" value="'a' and 'b' overlap,&amp;nbsp;&lt;br&gt;'b' ends after 'a'" style="text;html=1;strokeColor=#666666;fillColor=#f5f5f5;align=center;verticalAlign=middle;whiteSpace=wrap;rounded=1;gradientColor=#b3b3b3;fontColor=#1A1A1A;" vertex="1" parent="26">
                    <mxGeometry x="280" y="90" width="200" height="40" as="geometry"/>
                </mxCell>
                <mxCell id="16" value="'a' completely overlaps 'b'" style="text;html=1;strokeColor=#666666;fillColor=#f5f5f5;align=center;verticalAlign=middle;whiteSpace=wrap;rounded=1;gradientColor=#b3b3b3;fontColor=#1A1A1A;" vertex="1" parent="26">
                    <mxGeometry x="280" y="175" width="200" height="40" as="geometry"/>
                </mxCell>
                <mxCell id="17" value="'a' and 'b' overlap,&lt;br&gt;'a' ends after 'b'" style="text;html=1;strokeColor=#666666;fillColor=#f5f5f5;align=center;verticalAlign=middle;whiteSpace=wrap;rounded=1;gradientColor=#b3b3b3;fontColor=#1A1A1A;" vertex="1" parent="26">
                    <mxGeometry x="280" y="260" width="200" height="40" as="geometry"/>
                </mxCell>
                <mxCell id="18" value="'b' complete overlaps 'a'" style="text;html=1;strokeColor=#666666;fillColor=#f5f5f5;align=center;verticalAlign=middle;whiteSpace=wrap;rounded=1;gradientColor=#b3b3b3;fontColor=#1A1A1A;" vertex="1" parent="26">
                    <mxGeometry x="280" y="345" width="200" height="40" as="geometry"/>
                </mxCell>
                <mxCell id="19" value="'a' and 'b' do not overlap" style="text;html=1;strokeColor=#666666;fillColor=#f5f5f5;align=center;verticalAlign=middle;whiteSpace=wrap;rounded=1;gradientColor=#b3b3b3;fontColor=#1A1A1A;" vertex="1" parent="26">
                    <mxGeometry x="280" y="420" width="200" height="40" as="geometry"/>
                </mxCell>
                <mxCell id="21" value="" style="group" vertex="1" connectable="0" parent="26">
                    <mxGeometry y="250" width="180" height="60" as="geometry"/>
                </mxCell>
                <mxCell id="8" value="A" style="rounded=1;whiteSpace=wrap;html=1;fillColor=#d5e8d4;gradientColor=#97d077;strokeColor=#82b366;fontColor=#000000;" vertex="1" parent="21">
                    <mxGeometry x="60" width="120" height="40" as="geometry"/>
                </mxCell>
                <mxCell id="9" value="B" style="rounded=1;whiteSpace=wrap;html=1;fillColor=#ffcd28;gradientColor=#ffa500;strokeColor=#d79b00;fontColor=#000000;" vertex="1" parent="21">
                    <mxGeometry y="20" width="80" height="40" as="geometry"/>
                </mxCell>
                <mxCell id="22" value="" style="group" vertex="1" connectable="0" parent="26">
                    <mxGeometry y="330" width="80" height="70" as="geometry"/>
                </mxCell>
                <mxCell id="11" value="A" style="rounded=1;whiteSpace=wrap;html=1;fillColor=#d5e8d4;gradientColor=#97d077;strokeColor=#82b366;fontColor=#000000;" vertex="1" parent="22">
                    <mxGeometry x="15" width="50" height="40" as="geometry"/>
                </mxCell>
                <mxCell id="10" value="B" style="rounded=1;whiteSpace=wrap;html=1;fillColor=#ffcd28;gradientColor=#ffa500;strokeColor=#d79b00;fontColor=#000000;" vertex="1" parent="22">
                    <mxGeometry y="30" width="80" height="40" as="geometry"/>
                </mxCell>
                <mxCell id="23" value="" style="group" vertex="1" connectable="0" parent="26">
                    <mxGeometry y="160" width="120" height="70" as="geometry"/>
                </mxCell>
                <mxCell id="7" value="B" style="rounded=1;whiteSpace=wrap;html=1;fillColor=#ffcd28;gradientColor=#ffa500;strokeColor=#d79b00;fontColor=#000000;" vertex="1" parent="23">
                    <mxGeometry x="20" y="30" width="80" height="40" as="geometry"/>
                </mxCell>
                <mxCell id="6" value="A" style="rounded=1;whiteSpace=wrap;html=1;fillColor=#d5e8d4;gradientColor=#97d077;strokeColor=#82b366;fontColor=#000000;" vertex="1" parent="23">
                    <mxGeometry width="120" height="40" as="geometry"/>
                </mxCell>
                <mxCell id="24" value="" style="group" vertex="1" connectable="0" parent="26">
                    <mxGeometry y="80" width="180" height="60" as="geometry"/>
                </mxCell>
                <mxCell id="4" value="A" style="rounded=1;whiteSpace=wrap;html=1;fillColor=#d5e8d4;gradientColor=#97d077;strokeColor=#82b366;fontColor=#000000;" vertex="1" parent="24">
                    <mxGeometry width="120" height="40" as="geometry"/>
                </mxCell>
                <mxCell id="5" value="B" style="rounded=1;whiteSpace=wrap;html=1;fillColor=#ffcd28;gradientColor=#ffa500;strokeColor=#d79b00;fontColor=#000000;" vertex="1" parent="24">
                    <mxGeometry x="100" y="20" width="80" height="40" as="geometry"/>
                </mxCell>
            </root>
        </mxGraphModel>
    </diagram>
</mxfile>